#!OML:ASF E:\Steps\Project 1\Capture day 1\Session 2\Subject.ASF
:FULLY-SPECIFIED
:DEGREES
652
root 9.47033 20.1 -10.1965 -155.237 -3.13222 178.549
lowerback -17.8332 -2.45281 -2.24214
upperback 1.84341 -2.98053 1.38956
thorax 12.3067 -1.62018 1.97197
lowerneck -2.15841 -2.49959 -0.961557
upperneck 17.4339 -2.73361 2.53628
head 5.65703 -0.83288 0.843914
rclavicle -1.44616e-014 1.88845e-014
rhumerus -39.5279 -13.1004 -77.2861
rradius 42.8828
rwrist -4.07242
rhand -5.47091 -55.9519
rfingers 7.12502
rthumb 20.3409 -84.9066
lclavicle -1.44616e-014 1.88845e-014
lhumerus -28.8455 2.58429 81.44
lradius 27.581
lwrist -1.10121
lhand -21.9085 -15.1396
lfingers 7.12502
lthumb 4.49708 14.7927
rfemur -43.3089 2.43581 23.0003
rtibia 29.9385
rfoot -19.1646 -6.22085
rtoes -29.1917
lfemur -44.5834 -2.37703 -20.4427
ltibia 76.6163
lfoot 0.477431 6.42604
ltoes -35.9612
653
root 9.48703 20.1373 -10.2573 -155.322 -2.98085 178.628
lowerback -17.9701 -2.2438 -2.2477
upperback 1.9412 -2.69301 1.36219
thorax 12.48 -1.4863 2.0223
lowerneck -2.31576 -2.53299 -1.04606
upperneck 17.4507 -2.78738 2.59257
head 5.69233 -0.861385 0.87102
rclavicle 1.07344e-014 -3.18055e-015
rhumerus -39.019 -12.8092 -77.348
rradius 42.4847
rwrist -4.03841
rhand -5.61405 -56.0281
rfingers 7.12502
rthumb 20.2033 -84.9975
lclavicle 1.07344e-014 -3.18055e-015
lhumerus -28.6922 2.64756 81.4332
lradius 27.8467
lwrist -0.681853
lhand -21.7717 -15.0585
lfingers 7.12502
lthumb 4.62917 14.8709
rfemur -42.4268 2.67307 23.0986
rtibia 28.9886
rfoot -19.1268 -6.30026
rtoes -29.2043
lfemur -46.2265 -2.20448 -20.4771
ltibia 79.0436
lfoot -0.523863 5.9939
ltoes -35.4323
654
root 9.50457 20.172 -10.3206 -155.483 -2.82543 178.646
lowerback -18.0851 -2.03146 -2.29879
upperback 2.07535 -2.38371 1.28912
thorax 12.6814 -1.34374 2.05561
lowerneck -2.42344 -2.58797 -1.27126
upperneck 17.4506 -2.93613 3.1891
head 5.72557 -0.905338 1.08663
rclavicle -7.25564e-015 -4.57205e-015
rhumerus -38.7944 -12.5114 -77.4773
rradius 42.617
rwrist -4.34305
rhand -6.53794 -55.4371
rfingers 7.12502
rthumb 19.3152 -84.4979
lclavicle -7.25564e-015 -4.57205e-015
lhumerus -28.4138 2.74593 81.3851
lradius 27.967
lwrist -0.178153
lhand -21.8569 -15.1176
lfingers 7.12502
lthumb 4.54695 14.8136
rfemur -41.6836 2.88091 23.1273
rtibia 28.4289
rfoot -19.209 -6.44897
rtoes -29.6008
lfemur -47.7742 -2.03872 -20.5942
ltibia 81.2217
lfoot -1.26692 5.78859
ltoes -36.3588
655
root 9.5186 20.2032 -10.3829 -155.596 -2.76983 178.543
lowerback -18.1454 -1.92179 -2.40695
upperback 2.12117 -2.20199 1.22294
thorax 12.7601 -1.26433 2.09478
lowerneck -1.89162 -2.48316 -0.99125
upperneck 16.7525 -2.79318 2.90162
head 5.4051 -0.864421 0.960252
rclavicle -7.15625e-015 7.7526e-015
rhumerus -38.6071 -12.3676 -77.5207
rradius 42.731
rwrist -4.42754
rhand -7.12169 -55.5835
rfingers 7.12502
rthumb 18.7538 -84.6995
lclavicle -7.15625e-015 7.7526e-015
lhumerus -28.3425 2.73277 81.3735
lradius 28.0681
lwrist 0.36518
lhand -22.1176 -14.9229
lfingers 7.12502
lthumb 4.29526 15.0136
rfemur -40.9782 2.80852 23.0974
rtibia 27.8169
rfoot -19.2076 -6.46947
rtoes -29.3414
lfemur -49.3795 -2.02653 -20.8317
ltibia 83.2376
lfoot -1.93332 5.68569
ltoes -37.5099
656
root 9.53339 20.2334 -10.4416 -155.644 -2.86199 178.532
lowerback -18.1584 -1.87466 -2.4007
upperback 2.047 -2.14091 1.21039
thorax 12.6775 -1.23431 2.09521
lowerneck -2.24375 -2.55251 -0.984918
upperneck 17.4252 -2.80784 2.62134
head 5.67186 -0.860082 0.869974
rclavicle 1.80894e-014 -1.66979e-014
rhumerus -38.2831 -12.2984 -77.4945
rradius 42.4044
rwrist -4.31529
rhand -7.42804 -55.5919
rfingers 7.12502
rthumb 18.4591 -84.7361
lclavicle 1.80894e-014 -1.66979e-014
lhumerus -28.6593 2.78025 81.3062
lradius 28.3339
lwrist 0.751082
lhand -22.3053 -14.7589
lfingers 7.12502
lthumb 4.11397 15.1812
rfemur -40.2242 2.73274 23.1886
rtibia 26.9703
rfoot -19.114 -6.55443
rtoes -29.9964
lfemur -51.1353 -2.12993 -20.8732
ltibia 85.2225
lfoot -2.71003 5.67443
ltoes -37.7617
657
root 9.55125 20.2666 -10.4934 -155.819 -2.88885 178.507
lowerback -17.934 -1.77169 -2.39484
upperback 1.99711 -2.00101 1.14127
thorax 12.4767 -1.16347 2.06005
lowerneck -2.70994 -2.60775 -0.883264
upperneck 18.0944 -2.79737 2.23989
head 5.95548 -0.847621 0.73153
rclavicle 8.64713e-015 -1.61016e-014
rhumerus -37.9083 -12.3482 -77.4929
rradius 41.8971
rwrist -4.11968
rhand -7.75639 -54.6981
rfingers 7.12502
rthumb 18.1432 -83.8719
lclavicle 8.64713e-015 -1.61016e-014
lhumerus -29.0247 2.97506 81.1114
lradius 28.6442
lwrist 0.811221
lhand -22.3252 -14.6715
lfingers 7.12502
lthumb 4.09473 15.2689
rfemur -39.4658 2.71605 23.2366
rtibia 26.3206
rfoot -18.9675 -6.5876
rtoes -30.9588
lfemur -52.7909 -2.18633 -20.9212
ltibia 86.9578
lfoot -3.16392 5.72987
ltoes -39.0543
658
root 9.57 20.3011 -10.5433 -156.126 -2.85765 178.461
lowerback -17.5618 -1.6611 -2.47883
upperback 2.04362 -1.83208 1.08206
thorax 12.3024 -1.08552 2.09663
lowerneck -2.60795 -2.61794 -1.09952
upperneck 17.9018 -2.85369 2.56717
head 5.8861 -0.872534 0.867825
rclavicle -1.19271e-015 -2.5842e-015
rhumerus -37.6756 -12.2859 -77.5223
rradius 41.6724
rwrist -3.88877
rhand -7.69825 -54.4319
rfingers 7.12502
rthumb 18.1992 -83.6005
lclavicle -1.19271e-015 -2.5842e-015
lhumerus -29.0544 3.24427 80.9505
lradius 28.6841
lwrist 0.88983
lhand -22.2391 -14.6283
lfingers 7.12502
lthumb 4.17789 15.3105
rfemur -38.6493 2.76339 23.2161
rtibia 25.8194
rfoot -19.2009 -6.55553
rtoes -30.3718
lfemur -54.2847 -2.17233 -21.0332
ltibia 88.3572
lfoot -3.41061 5.92447
ltoes -40.9309
659
root 9.58786 20.3301 -10.6019 -156.381 -2.91629 178.385
lowerback -17.4663 -1.59706 -2.64866
upperback 2.15416 -1.70452 1.0558
thorax 12.3702 -1.03711 2.20123
lowerneck -2.38884 -2.59058 -1.37652
upperneck 17.4251 -2.9087 3.14464
head 5.71203 -0.895944 1.09264
rclavicle 4.17448e-015 6.55989e-015
rhumerus -37.4028 -12.3202 -77.4726
rradius 41.7878
rwrist -3.35976
rhand -6.6325 -55.4734
rfingers 7.12502
rthumb 19.2242 -84.5433
lclavicle 4.17448e-015 6.55989e-015
lhumerus -28.879 3.39694 80.8801
lradius 28.5494
lwrist 1.14461
lhand -22.2203 -14.6822
lfingers 7.12502
lthumb 4.19604 15.2562
rfemur -37.7657 2.85085 23.1524
rtibia 25.1875
rfoot -19.1976 -6.73829
rtoes -30.0589
lfemur -55.7557 -2.26676 -21.1393
ltibia 89.6009
lfoot -3.86968 6.09339
ltoes -41.4528
660
root 9.59904 20.3537 -10.6637 -156.588 -3.01181 178.239
lowerback -17.5246 -1.54307 -2.75511
upperback 2.22946 -1.59675 0.985918
thorax 12.485 -0.992439 2.21349
lowerneck -2.65759 -2.71232 -1.05887
upperneck 17.985 -2.98226 2.61645
head 5.92352 -0.922083 0.869124
rclavicle -4.17448e-015 3.97569e-015
rhumerus -37.0713 -12.3896 -77.4446
rradius 41.5836
rwrist -2.89294
rhand -6.08277 -55.909
rfingers 7.12502
rthumb 19.7528 -84.9253
lclavicle -4.17448e-015 3.97569e-015
lhumerus -28.7651 3.3974 80.8219
lradius 28.3786
lwrist 1.32951
lhand -22.2967 -14.4904
lfingers 7.12502
lthumb 4.12223 15.4495
rfemur -36.7983 2.75725 23.0583
rtibia 24.3479
rfoot -19.0524 -6.92729
rtoes -31.0376
lfemur -57.1909 -2.46659 -21.3301
ltibia 90.7088
lfoot -4.25703 6.24259
ltoes -41.3979
661
root 9.6084 20.375 -10.7284 -156.804 -3.07735 178.23
lowerback -17.5391 -1.45756 -2.68873
upperback 2.2207 -1.49321 0.954419
thorax 12.4735 -0.937883 2.16972
lowerneck -2.63352 -1.32808 -1.19574
upperneck 18.1108 -3.4119 2.89849
head 5.97142 -1.97843 0.866099
rclavicle -3.27995e-015 -1.98785e-015
rhumerus -36.855 -12.2706 -77.4405
rradius 41.1831
rwrist -2.94643
rhand -6.63637 -55.4061
rfingers 7.12502
rthumb 19.2205 -84.4763
lclavicle -3.27995e-015 -1.98785e-015
lhumerus -28.9371 3.45231 80.7605
lradius 28.2625
lwrist 1.36929
lhand -22.4496 -14.4343
lfingers 7.12502
lthumb 3.97461 15.5084
rfemur -35.6885 2.59376 23.1563
rtibia 23.2446
rfoot -18.7605 -6.91319
rtoes -31.6058
lfemur -58.6026 -2.53782 -21.414
ltibia 91.6994
lfoot -4.58578 6.37439
ltoes -41.4543
662
root 9.62333 20.3965 -10.7896 -157 -3.11739 178.284
lowerback -17.4827 -1.33905 -2.67766
upperback 2.21153 -1.34098 0.969982
thorax 12.4202 -0.866199 2.22428
lowerneck -2.52667 -1.29316 -1.39867
upperneck 17.9038 -3.36369 3.1748
head 5.89373 -1.94459 0.993043
rclavicle 2.88238e-015 -1.59028e-014
rhumerus -36.6727 -12.2382 -77.3487
rradius 41.0364
rwrist -3.09771
rhand -6.79783 -55.0825
rfingers 7.12502
rthumb 19.0652 -84.168
lclavicle 2.88238e-015 -1.59028e-014
lhumerus -29.2569 3.58424 80.6884
lradius 28.3353
lwrist 1.19714
lhand -22.4656 -14.9179
lfingers 7.12502
lthumb 3.95913 15.0251
rfemur -34.7349 2.63302 23.2735
rtibia 22.318
rfoot -18.7327 -7.10182
rtoes -32.1337
lfemur -60.1375 -2.52392 -21.3821
ltibia 92.6643
lfoot -5.16628 6.34679
ltoes -40.5085
